<svg width="57" height="26" viewBox="0 0 57 26" fill="none" xmlns="http://www.w3.org/2000/svg">
<path d="M2 11.25C1.0335 11.25 0.25 12.0335 0.25 13C0.25 13.9665 1.0335 14.75 2 14.75V11.25ZM56.2374 14.2374C56.9209 13.554 56.9209 12.446 56.2374 11.7626L45.1005 0.625631C44.4171 -0.0577862 43.309 -0.0577862 42.6256 0.625631C41.9422 1.30905 41.9422 2.41709 42.6256 3.10051L52.5251 13L42.6256 22.8995C41.9422 23.5829 41.9422 24.691 42.6256 25.3744C43.309 26.0578 44.4171 26.0578 45.1005 25.3744L56.2374 14.2374ZM2 14.75H55V11.25H2V14.75Z" fill="white"/>
</svg>
