<svg width="57" height="26" viewBox="0 0 57 26" fill="none" xmlns="http://www.w3.org/2000/svg">
<path d="M55 11.25C55.9665 11.25 56.75 12.0335 56.75 13C56.75 13.9665 55.9665 14.75 55 14.75V11.25ZM0.762566 14.2374C0.0791512 13.554 0.0791512 12.446 0.762566 11.7626L11.8995 0.625631C12.5829 -0.057786 13.691 -0.057786 14.3744 0.625631C15.0578 1.30905 15.0578 2.41709 14.3744 3.1005L4.47488 13L14.3744 22.8995C15.0578 23.5829 15.0578 24.691 14.3744 25.3744C13.691 26.0578 12.5829 26.0578 11.8995 25.3744L0.762566 14.2374ZM55 14.75H2V11.25H55V14.75Z" fill="white"/>
</svg>
