<svg width="32" height="32" viewBox="0 0 32 32" fill="none" xmlns="http://www.w3.org/2000/svg">
<circle cx="16" cy="16" r="16" fill="#1C1C1C"/>
<path d="M7.80683 9.87334H11.9193C12.803 9.87334 13.5563 10.0064 14.1791 10.2726C14.802 10.5388 15.2784 10.9327 15.6085 11.4544C15.9439 11.9708 16.1116 12.6097 16.1116 13.3709C16.1116 13.9512 16.0051 14.4623 15.7922 14.9041C15.5792 15.346 15.2784 15.7186 14.8898 16.0221C14.5012 16.3202 14.0381 16.5517 13.5004 16.7168L12.8935 17.0122H9.19628L9.18031 15.4232H11.9512C12.4303 15.4232 12.8296 15.338 13.149 15.1676C13.4684 14.9973 13.708 14.7657 13.8677 14.4729C14.0327 14.1748 14.1153 13.8394 14.1153 13.4667C14.1153 13.0622 14.0354 12.7108 13.8757 12.4127C13.7213 12.1092 13.4817 11.8777 13.157 11.718C12.8323 11.5529 12.4197 11.4704 11.9193 11.4704H9.81115V21.5H7.80683V9.87334ZM14.4427 21.5L11.7117 16.2776L13.8118 16.2696L16.5827 21.3962V21.5H14.4427ZM21.7253 21.6597C21.0865 21.6597 20.5088 21.5559 19.9925 21.3483C19.4814 21.1353 19.0449 20.8399 18.6829 20.4619C18.3262 20.0839 18.052 19.6394 17.8604 19.1284C17.6687 18.6173 17.5729 18.0663 17.5729 17.4754V17.156C17.5729 16.4799 17.6714 15.8677 17.8684 15.3193C18.0653 14.771 18.3395 14.3025 18.6909 13.9139C19.0422 13.52 19.4574 13.2192 19.9366 13.0116C20.4157 12.804 20.9347 12.7002 21.4937 12.7002C22.1112 12.7002 22.6516 12.804 23.1147 13.0116C23.5779 13.2192 23.9612 13.512 24.2646 13.89C24.5734 14.2626 24.8023 14.7071 24.9514 15.2235C25.1057 15.7399 25.1829 16.3095 25.1829 16.9324V17.7549H18.5072V16.3734H23.2824V16.2217C23.2718 15.8757 23.2026 15.5509 23.0748 15.2475C22.9524 14.944 22.7634 14.6992 22.5078 14.5128C22.2523 14.3265 21.9116 14.2333 21.4857 14.2333C21.1663 14.2333 20.8815 14.3025 20.6313 14.441C20.3864 14.574 20.1814 14.7684 20.0164 15.0239C19.8514 15.2794 19.7236 15.5882 19.6331 15.9502C19.5479 16.3069 19.5054 16.7088 19.5054 17.156V17.4754C19.5054 17.8534 19.5559 18.2047 19.6571 18.5295C19.7635 18.8489 19.9179 19.1284 20.1202 19.3679C20.3225 19.6075 20.5674 19.7965 20.8549 19.9349C21.1424 20.068 21.4698 20.1345 21.8371 20.1345C22.3002 20.1345 22.7128 20.0413 23.0748 19.855C23.4368 19.6687 23.7509 19.4052 24.0171 19.0645L25.0312 20.0467C24.8449 20.3182 24.6027 20.579 24.3045 20.8292C24.0064 21.0741 23.6418 21.2737 23.2106 21.4281C22.7847 21.5825 22.2896 21.6597 21.7253 21.6597Z" fill="white"/>
</svg>
