<svg width="256" height="256" viewBox="0 0 256 256" fill="none" xmlns="http://www.w3.org/2000/svg">
<circle cx="128" cy="128" r="128" fill="#1C1C1C"/>
<path d="M62.4546 79.9867H95.3543C102.424 79.9867 108.45 81.0514 113.433 83.1809C118.416 85.3103 122.228 88.4618 124.868 92.6355C127.551 96.7666 128.893 101.877 128.893 107.967C128.893 112.61 128.041 116.698 126.337 120.233C124.634 123.768 122.228 126.749 119.119 129.176C116.01 131.561 112.304 133.414 108.003 134.734L103.148 137.098H73.5702L73.4425 124.385H95.6098C99.4428 124.385 102.637 123.704 105.192 122.341C107.748 120.978 109.664 119.126 110.942 116.783C112.262 114.398 112.922 111.715 112.922 108.734C112.922 105.497 112.283 102.686 111.006 100.301C109.77 97.8739 107.854 96.0213 105.256 94.7436C102.658 93.4234 99.3576 92.7633 95.3543 92.7633H78.4892V173H62.4546V79.9867ZM115.541 173L93.6933 131.221L110.494 131.157L132.662 172.17V173H115.541ZM173.802 174.278C168.692 174.278 164.071 173.447 159.94 171.786C155.851 170.083 152.359 167.719 149.463 164.695C146.61 161.671 144.416 158.115 142.883 154.027C141.35 149.938 140.583 145.53 140.583 140.803V138.248C140.583 132.839 141.371 127.941 142.947 123.555C144.523 119.168 146.716 115.42 149.527 112.311C152.338 109.16 155.66 106.754 159.493 105.093C163.325 103.432 167.478 102.601 171.95 102.601C176.89 102.601 181.213 103.432 184.918 105.093C188.623 106.754 191.689 109.096 194.117 112.12C196.587 115.101 198.418 118.657 199.611 122.788C200.846 126.919 201.463 131.476 201.463 136.459V143.039H148.058V131.987H186.259V130.774C186.174 128.005 185.621 125.407 184.598 122.98C183.619 120.552 182.107 118.593 180.063 117.103C178.019 115.612 175.293 114.867 171.886 114.867C169.33 114.867 167.052 115.42 165.05 116.528C163.091 117.592 161.452 119.147 160.131 121.191C158.811 123.235 157.789 125.705 157.065 128.601C156.384 131.455 156.043 134.67 156.043 138.248V140.803C156.043 143.827 156.447 146.638 157.257 149.236C158.108 151.791 159.343 154.027 160.962 155.943C162.58 157.86 164.539 159.372 166.839 160.479C169.139 161.544 171.758 162.076 174.697 162.076C178.402 162.076 181.702 161.331 184.598 159.84C187.494 158.35 190.007 156.241 192.137 153.516L200.25 161.373C198.759 163.545 196.821 165.632 194.436 167.634C192.051 169.593 189.134 171.19 185.684 172.425C182.277 173.66 178.317 174.278 173.802 174.278Z" fill="white"/>
</svg>
